<?xml version="1.0" standalone="no"?>
<!DOCTYPE svg PUBLIC "-//W3C//DTD SVG 20010904//EN"
 "http://www.w3.org/TR/2001/REC-SVG-20010904/DTD/svg10.dtd">
<svg version="1.0" xmlns="http://www.w3.org/2000/svg"
 width="1024.000000pt" height="1024.000000pt" viewBox="0 0 1024.000000 1024.000000"
 preserveAspectRatio="xMidYMid meet">
<metadata>
Created by potrace 1.14, written by Peter Selinger 2001-2017
</metadata>
<g transform="translate(0.000000,1024.000000) scale(0.100000,-0.100000)"
fill="#000000" stroke="none">
<path d="M4921 10229 c-699 -74 -1313 -534 -1577 -1184 l-32 -80 -609 -6
c-587 -5 -611 -6 -693 -27 -348 -92 -614 -360 -702 -708 l-23 -89 0 -3655 0
-3655 23 -90 c28 -110 103 -267 170 -355 129 -170 324 -298 538 -352 l89 -23
3015 0 3015 0 90 23 c110 28 267 103 355 170 170 129 298 324 352 538 l23 89
0 3655 0 3655 -23 89 c-54 214 -182 409 -352 538 -85 65 -244 142 -350 170
-82 21 -106 22 -693 27 l-609 6 -32 80 c-319 785 -1131 1272 -1975 1184z m353
-1289 c230 -59 407 -236 466 -466 87 -338 -123 -687 -466 -774 -338 -87 -687
123 -774 466 -86 336 122 685 462 774 97 25 214 25 312 0z m1581 -2569 c63
-32 124 -93 156 -156 20 -41 24 -65 24 -135 0 -70 -4 -94 -24 -135 -32 -63
-93 -124 -156 -156 l-50 -24 -1685 0 -1685 0 -50 24 c-178 88 -238 304 -130
468 38 57 106 109 169 129 33 10 371 12 1711 11 l1670 -2 50 -24z"/>
</g>
</svg>
